@startuml "Практическая работа 1"
left to right direction
title Информационная  система технической экспертизы
skinparam backgroundcolor AntiqueWhite/Gold
actor соискатель
actor эксперты
actor держатель

rectangle Система {
соискатель -- (подать заявку)
(подать заявку) ..>(оценка заявки):<<include>>
эксперты -- (оценка заявки)
(оценка заявки) ..>(принятие решения):<<include>>
держатель -- (принятие решения)
(принятие решения) ..>(отказано):<<include>>
(принятие решения) ..>(одобрено):<<include>>
}
@enduml

@startuml
class заявка{
+номер и дата
+заявитель
+сумма гранта
+цель
+примечание
+оценка эксперта
}

class соискатель{
+персональные данные
+количество
+вид лица
отправление заявки()
}

class эксперт{
+степень доверия
+ФИО
+должность
оценка заявки()
}

class держатель{
+статус
+должность
+ФИО
принятие решения()
}

class решение{
+отказ
+добро
+комментарий
}

соискатель --> заявка:подаёт
эксперт --> заявка:рассматривает
держатель --> заявка:решает
заявка ..> решение
@enduml
